<svg xmlns="http://www.w3.org/2000/svg" version="1.1" xmlns:xlink="http://www.w3.org/1999/xlink" width="1000" height="1000"><g clip-path="url(#SvgjsClipPath1069)"><rect width="1000" height="1000" fill="#090909"></rect><g transform="matrix(8.450704225352112,0,0,8.450704225352112,229.5774647887324,200)"><svg xmlns="http://www.w3.org/2000/svg" version="1.1" xmlns:xlink="http://www.w3.org/1999/xlink" width="64" height="71"><svg width="64" height="71" viewBox="0 0 64 71" fill="none" xmlns="http://www.w3.org/2000/svg">
<path d="M33.4791 1.20598C35.2923 -0.484847 38.1329 -0.385656 39.8237 1.42754C41.5145 3.24073 41.4153 6.08131 39.6021 7.77214L7.55059 37.6607C5.73739 39.3515 2.89681 39.2523 1.20598 37.4391C-0.484849 35.6259 -0.385654 32.7854 1.42754 31.0945L33.4791 1.20598Z" fill="#C2FF52"></path>
<path d="M55.4791 33.206C57.2923 31.5152 60.1329 31.6143 61.8237 33.4275C63.5145 35.2407 63.4153 38.0813 61.6021 39.7721L29.5506 69.6607C27.7374 71.3515 24.8968 71.2523 23.206 69.4391C21.5152 67.6259 21.6144 64.7854 23.4276 63.0945L55.4791 33.206Z" fill="#C2FF52"></path>
<path d="M40.79 25.0593C40.8569 25.0929 40.8988 25.1606 40.8988 25.2355C40.8988 25.3302 40.9655 25.4128 41.0582 25.4318C41.0864 25.4376 41.1148 25.4434 41.1435 25.4493C42.9876 25.9778 44.6904 27.7713 46.0628 29.0573C46.1549 29.1435 46.247 29.2297 46.3419 29.3185C46.9508 29.8985 47.5611 30.4955 48.0725 31.1662C48.1079 31.2126 48.1266 31.2687 48.1266 31.327C48.1266 31.4435 48.201 31.5477 48.3115 31.5847C48.3391 31.5939 48.3667 31.6032 48.3945 31.6125C48.495 31.6462 48.5777 31.7191 48.6236 31.8147C48.6409 31.8506 48.6582 31.8867 48.6758 31.9233C48.8223 32.2625 48.8223 32.2625 49.1718 32.5018C49.4475 32.7261 49.6382 32.958 49.8198 33.2189C50.02 33.5065 50.2385 33.7813 50.4916 34.0238C50.6567 34.1986 50.761 34.3267 50.8292 34.4634C51.0151 34.8357 50.8676 35.2894 50.5802 35.5903C50.4883 35.6876 50.3964 35.7849 50.3017 35.8851C50.137 36.052 50.137 36.052 49.969 36.2222C49.7758 36.4243 49.7758 36.4243 49.5787 36.6305C48.7738 37.4641 47.9466 38.2245 47.0322 38.9369C46.7008 39.1979 46.7008 39.1979 46.4797 39.5332C46.4433 39.5796 46.4069 39.626 46.3701 39.6729C46.3159 39.742 46.2329 39.7824 46.1451 39.7824C46.1051 39.7824 46.065 39.7824 46.0247 39.7824C45.9332 39.7824 45.8591 39.8555 45.8591 39.947C45.8591 40.0182 45.8136 40.0825 45.7461 40.1051C45.6694 40.1308 45.5923 40.1566 45.5136 40.183C45.4735 40.2016 45.4334 40.2203 45.3932 40.239C45.2383 40.3112 45.1205 40.4424 45.0667 40.6046C45.0292 40.7176 44.9595 40.8193 44.8666 40.8937C44.6595 41.0595 44.5976 41.1016 44.2204 41.3578C44.099 41.4403 44.099 41.4403 43.975 41.5245C43.7067 41.7053 43.4369 41.8835 43.1664 42.061C43.0711 42.1235 42.9759 42.186 42.8777 42.2504C40.8866 43.548 40.8866 43.548 39.9186 43.9306C39.6383 44.0484 39.38 44.184 39.1135 44.33C38.4374 44.6725 37.746 44.8413 37.0103 45.007C36.8842 45.0372 36.7581 45.0674 36.6281 45.0985C32.8742 45.972 28.9933 45.386 25.5929 43.6274C25.3852 43.5239 25.3852 43.5239 25.1733 43.4183C24.2805 42.9556 23.4945 42.3899 22.7059 41.7695C22.4355 41.5676 22.186 41.4071 21.8933 41.2655C21.8167 41.2284 21.7664 41.1528 21.7664 41.0677C21.7664 40.9801 21.7134 40.9001 21.6322 40.867C21.6008 40.8542 21.5692 40.8413 21.5372 40.8282C21.0765 40.5672 20.7137 40.2161 20.3315 39.8536C20.2099 39.7394 20.2099 39.7394 20.0859 39.6229C19.0785 38.6719 18.0907 37.7067 17.192 36.65C16.9184 36.3301 16.6364 36.0185 16.3544 35.706C16.1871 35.5159 16.0448 35.3542 15.9239 35.2153C15.2893 34.4859 15.4665 33.5137 16.133 32.8133C16.2347 32.7039 16.2347 32.7039 16.3384 32.5922C16.6624 32.245 16.9922 31.9057 17.3282 31.57C17.5882 31.307 17.8239 31.0451 18.0551 30.7573C18.6624 30.0357 19.3883 29.4537 20.1101 28.8526C20.4791 28.5536 20.4791 28.5536 20.739 28.2741C20.8605 28.1581 20.8986 28.1216 21.0021 28.1102C21.1106 28.0982 21.1995 28.0175 21.1995 27.9084C21.1995 27.8528 21.2229 27.7987 21.2643 27.7616C21.7365 27.3393 22.2081 27.0046 22.7585 26.6809C22.9046 26.5722 23.0508 26.4635 23.2014 26.3516C23.7458 25.9555 24.3254 25.6415 24.9181 25.3247C25.2684 25.1365 25.6121 24.94 25.9561 24.7406C30.5743 22.1833 36.22 22.7646 40.79 25.0593ZM27.825 27.0191C27.7205 27.0588 27.616 27.0984 27.5084 27.1393C26.8668 27.3912 26.2987 27.6937 25.7222 28.072C25.4675 28.2368 25.2092 28.385 24.9435 28.5311C24.429 28.8348 23.9752 29.1719 23.5114 29.5468C23.4265 29.6148 23.3417 29.6828 23.2543 29.7528C22.9938 29.9621 22.7343 30.1727 22.475 30.3835C22.3942 30.4487 22.3133 30.514 22.2299 30.5812C22.0007 30.7664 21.7727 30.9529 21.545 31.14C21.4133 31.2482 21.2816 31.3563 21.1458 31.4677C20.7379 31.841 20.4129 32.2315 20.0658 32.662C19.9489 32.7766 19.8319 32.8911 19.7115 33.0091C19.521 33.2053 22.2797 33.6648 25.2769 34.1513C29.541 34.8433 28.4663 33.8566 24.872 31.4604C23.5389 30.5718 24.5262 31.9544 23.7107 33.3334C23.081 34.3983 22.452 35.4629 22.5071 35.5252C22.6743 35.7109 20.5518 35.8484 20.2362 36.0176C20.189 36.0429 20.2376 36.0798 20.2911 36.0798C20.3102 36.0798 20.3293 36.0798 20.3485 36.0798C20.4272 36.0798 20.4909 36.1429 20.4909 36.2215C20.4909 36.2998 20.5533 36.3646 20.6316 36.3646C20.7099 36.3646 20.7744 36.4274 20.7744 36.5056C20.7744 36.5843 20.8381 36.6494 20.9168 36.6494C20.9255 36.6494 20.9342 36.6494 20.9429 36.6494C21.0122 36.6494 21.0745 36.6919 21.0998 36.7565C21.1123 36.7886 21.123 36.8158 21.1445 36.8708C21.1509 36.8871 21.1586 36.903 21.1675 36.9181C21.4067 37.322 21.6979 37.5472 22.0676 37.8421C22.2066 37.9532 22.3456 38.0642 22.4889 38.1787C22.6925 38.3381 22.6925 38.3381 22.9002 38.5008C23.014 38.5909 23.1278 38.681 23.2451 38.7739C23.6417 39.1242 23.7133 39.1874 24.05 39.2835C24.2159 39.3309 24.3497 39.4524 24.404 39.6162C24.4394 39.7229 24.5091 39.8177 24.6034 39.8789C24.7289 39.9605 24.7876 39.9861 25.0349 40.0939C25.5044 40.3173 25.9722 40.5416 26.4349 40.7787C26.5328 40.8287 26.6306 40.8787 26.7314 40.9302C26.9243 41.0289 27.117 41.1279 27.3097 41.2272C30.2354 42.7109 33.7891 43.0336 36.9268 42.0173C38.2976 41.5461 39.588 41.0453 40.746 40.1496C41.1855 39.8142 41.6597 39.5487 42.1389 39.2751C42.4027 39.1361 42.4589 39.1065 42.532 38.9476C42.5785 38.8465 42.6603 38.7652 42.7658 38.7299C42.8056 38.7165 42.8455 38.7032 42.8856 38.6898C42.9686 38.6619 43.0247 38.5852 43.0247 38.4976C43.0247 38.4141 43.0755 38.3381 43.1529 38.3072C43.1768 38.2977 43.2043 38.2867 43.2505 38.2682C43.7351 37.9916 44.1092 37.6203 44.5127 37.2369C44.5933 37.1614 44.6739 37.086 44.7569 37.0083C44.9838 36.795 45.209 36.5801 45.4339 36.3646C45.5465 36.2585 45.659 36.1524 45.7749 36.0431C45.8689 35.9603 45.9287 35.9077 45.9651 35.8594C46.0921 35.6909 46.1419 35.4629 46.3419 35.3959C46.3967 35.3776 46.439 35.3316 46.3931 35.2966C46.0114 35.0056 43.1047 34.1244 41.0803 33.4442C39.7556 32.9991 39.8629 32.7654 41.2187 33.1044C42.4819 33.4202 44.0692 33.8257 45.2597 34.121C45.9551 34.2936 45.9523 34.2928 45.2501 34.1502C45.0508 34.1097 44.8473 34.0685 44.6476 34.0279C43.7686 33.8494 44.2922 32.8553 43.6445 32.2348C43.5159 32.0789 46.0286 32.7761 45.9034 32.6175C45.8141 32.5133 45.7248 32.409 45.6337 32.3027C45.5969 32.2596 45.5438 32.2348 45.4871 32.2348C45.3799 32.2348 45.2922 32.1479 45.2922 32.0407C45.2922 32.035 45.2922 32.0294 45.2922 32.0237C45.2922 31.976 45.276 31.9295 45.2462 31.8922C45.1155 31.7288 45.0872 31.7004 44.9246 31.5691C44.8874 31.5391 44.841 31.5228 44.7932 31.5228C44.7897 31.5228 44.7861 31.5228 44.7825 31.5228C44.6727 31.5228 44.5836 31.4347 44.5836 31.3248C44.5836 31.27 44.5609 31.2165 44.5209 31.179C44.3574 31.0255 44.3296 31.0053 44.061 30.8107C43.6715 30.517 43.2857 30.2228 42.9078 29.914C41.2099 28.5421 41.7497 30.2151 38.2944 27.8327C37.6072 27.3589 35.7226 28.0578 34.9224 27.8201C33.9018 27.5508 34.0381 26.0641 32.989 26.0667C32.7148 26.0633 32.7148 26.0633 32.4351 26.0598C30.7798 26.0589 29.3549 26.4097 27.825 27.0191Z" fill="#C2FF52"></path>
<path d="M30.0676 25.6507C27.3308 25.805 24.7758 26.7713 22.5585 28.0572C17.5366 30.9697 17.6194 37.9461 22.5593 40.9955C24.8573 42.4141 27.4463 43.4755 30.0676 43.5729C33.4856 43.7001 38.3898 42.0563 42.5641 40.0246C47.6053 37.571 47.7421 31.8948 42.7716 29.3008C38.6864 27.1688 33.7886 25.4407 30.0676 25.6507Z" fill="#C2FF52"></path>
<path d="M36.8464 34.08C36.8467 34.08 36.8472 34.081 36.8469 34.0813L31.9693 39.2211C31.9177 39.2753 31.8494 39.3116 31.7749 39.3243C31.7005 39.3371 31.6238 39.3257 31.5565 39.2919C31.4891 39.258 31.4348 39.2035 31.4018 39.1367C31.3687 39.0698 31.3586 38.9942 31.3731 38.9212L31.4786 38.4021C31.7853 36.8934 30.9458 35.3864 29.5015 34.853C29.4476 34.8332 29.3995 34.8005 29.3616 34.7579C29.3236 34.7154 29.297 34.6642 29.2841 34.6091C29.2711 34.5539 29.2723 34.4965 29.2874 34.4419C29.3026 34.3872 29.3312 34.3372 29.3708 34.2961L34.249 29.1557C34.3007 29.1014 34.369 29.0652 34.4434 29.0524C34.5179 29.0396 34.5946 29.051 34.6619 29.0849C34.7292 29.1187 34.7835 29.1732 34.8166 29.2401C34.8497 29.3069 34.8598 29.3826 34.8453 29.4555L34.7388 29.9786C34.4317 31.4868 35.2711 32.9934 36.7151 33.5259C36.7686 33.5459 36.8163 33.5785 36.854 33.6209C36.8916 33.6633 36.9181 33.7141 36.931 33.769C36.9439 33.8238 36.9429 33.8809 36.928 33.9353C36.9133 33.9894 36.8852 34.0391 36.8464 34.08C36.8461 34.08 36.8462 34.0802 36.8464 34.08Z" fill="#141413"></path>
</svg></svg></g></g><defs><clipPath id="SvgjsClipPath1069"><rect width="1000" height="1000" x="0" y="0" rx="300" ry="300"></rect></clipPath></defs></svg>